<svg width="46" height="32" viewBox="0 0 46 32" fill="none" xmlns="http://www.w3.org/2000/svg">
<g clip-path="url(#clip0_8409_97723)">
<path d="M0.00585938 17.967V3.21873C0.00585938 2.80311 0.145696 2.46307 0.425373 2.19858C0.705051 1.9341 1.03134 1.80186 1.40424 1.80186H7.89272C8.30291 1.80186 8.63852 1.9341 8.89955 2.19858C9.16059 2.46307 9.2911 2.80311 9.2911 3.21873V5.14568C10.1861 4.04996 11.342 3.12428 12.7591 2.36861C14.1761 1.61294 15.7796 1.23511 17.5695 1.23511C21.6714 1.23511 24.4868 2.85977 26.0157 6.10916C26.9107 4.67338 28.1599 3.50211 29.7634 2.59531C31.3669 1.6885 33.0822 1.23511 34.9094 1.23511C37.9672 1.23511 40.4563 2.28358 42.3768 4.38057C44.2972 6.47756 45.2574 9.6041 45.2574 13.7603V30.0217C45.2574 30.3996 45.1269 30.7302 44.8659 31.0136C44.6048 31.2969 44.2692 31.4386 43.859 31.4386H36.979C36.5688 31.4386 36.2239 31.3064 35.9442 31.0419C35.6645 30.7774 35.5247 30.4374 35.5247 30.0217V14.157C35.5247 12.419 35.1611 11.1438 34.434 10.3314C33.7068 9.5191 32.7279 9.11293 31.4974 9.11293C30.3414 9.11293 29.3998 9.5191 28.6726 10.3314C27.9455 11.1438 27.5819 12.419 27.5819 14.157V17.967C27.5819 18.586 27.0858 19.0877 26.4738 19.0877H18.9573C18.3453 19.0877 17.8492 18.586 17.8492 17.967V14.157C17.8492 12.419 17.4763 11.1438 16.7305 10.3314C15.9847 9.5191 15.0151 9.11293 13.8218 9.11293C12.6658 9.11293 11.715 9.5191 10.9692 10.3314C10.2233 11.1438 9.85045 12.4001 9.85045 14.1003V17.967C9.85045 18.586 9.35431 19.0877 8.7423 19.0877H1.11401C0.501995 19.0877 0.00585938 18.586 0.00585938 17.967Z" fill="url(#paint0_linear_8409_97723)"/>
<path d="M26.4815 22.4562H18.946C18.334 22.4562 17.8379 22.958 17.8379 23.5769V30.3179C17.8379 30.9369 18.334 31.4386 18.946 31.4386H26.4815C27.0935 31.4386 27.5896 30.9369 27.5896 30.3179V23.5769C27.5896 22.958 27.0935 22.4562 26.4815 22.4562Z" fill="#28CEBC"/>
<path d="M8.74557 22.4562H1.11596C0.503948 22.4562 0.0078125 22.958 0.0078125 23.5769V30.3179C0.0078125 30.9369 0.503948 31.4386 1.11596 31.4386H8.74557C9.35759 31.4386 9.85372 30.9369 9.85372 30.3179V23.5769C9.85372 22.958 9.35759 22.4562 8.74557 22.4562Z" fill="#28CEBC"/>
</g>
<defs>
<linearGradient id="paint0_linear_8409_97723" x1="0.00585937" y1="1.00465" x2="301.483" y2="1.00465" gradientUnits="userSpaceOnUse">
<stop stop-color="#1F066C"/>
<stop offset="1" stop-color="#01FFC6"/>
</linearGradient>
<clipPath id="clip0_8409_97723">
<rect width="45.3333" height="32" fill="white"/>
</clipPath>
</defs>
</svg>
